Coordinates
version=1
nRows=19
nColumns=24
inDegrees=yes

Units are S.I. units (second, meters, Newtons, ...)
Angles are in degrees.

endheader
time	pelvis_tilt	pelvis_list	pelvis_rotation	pelvis_tx	pelvis_ty	pelvis_tz	hip_flexion_r	hip_adduction_r	hip_rotation_r	knee_angle_r	ankle_angle_r	subtalar_angle_r	mtp_angle_r	hip_flexion_l	hip_adduction_l	hip_rotation_l	knee_angle_l	ankle_angle_l	subtalar_angle_l	mtp_angle_l	lumbar_extension	lumbar_bending	lumbar_rotation
      1.71200000	      0.46969002	     -0.14492269	     -5.13940771	      1.36172323	      1.02017790	      0.31793367	     23.61643890	     -1.40035336	     -5.25847474	    -65.66660498	      1.43623851	     -7.75988805	     -9.29059343	      7.59203976	      1.21721472	     -9.68204940	    -12.38752390	      0.74688895	    -10.20862309	      1.43560935	    -10.93246008	     -3.45989018	      2.14992857
      1.71616667	      0.64318022	     -0.28068243	     -4.81102937	      1.36675471	      1.02116971	      0.31698512	     23.81467534	     -1.34584192	     -5.67228380	    -64.79130512	      1.86555043	     -7.62288479	     -9.20279347	      6.94501197	      1.21103790	     -9.38916992	    -12.05146015	      0.78313312	    -10.14915576	      1.46752235	    -11.18843054	     -3.20910820	      1.80830494
      1.72033333	      0.72300461	     -0.38427533	     -4.54771113	      1.37182809	      1.02194167	      0.31621559	     24.11907184	     -1.28402873	     -6.00260189	    -63.90300359	      2.31179490	     -7.42238957	     -9.13151350	      6.40220160	      1.20716097	     -9.18564313	    -11.73612395	      0.83333093	    -10.07168195	      1.49952746	    -11.31236626	     -3.00588345	      1.59889100
      1.72450000	      0.83348086	     -0.49241637	     -4.30724889	      1.37685151	      1.02273430	      0.31547442	     24.37745398	     -1.21453223	     -6.31449712	    -62.96119603	      2.70442618	     -7.25903805	     -9.06606820	      5.82120367	      1.19638649	     -8.99140228	    -11.40421708	      0.86320541	    -10.03328532	      1.54259145	    -11.47303012	     -2.79911746	      1.35988887
      1.72866667	      0.88302681	     -0.56954680	     -4.08582607	      1.38187652	      1.02334352	      0.31481758	     24.69920562	     -1.16143058	     -6.59340861	    -62.01141851	      3.13628444	     -7.11876707	     -9.02456132	      5.32926269	      1.19928425	     -8.83348203	    -11.11869441	      0.94728621	     -9.93904303	      1.58139828	    -11.55704854	     -2.63508467	      1.19824247
      1.73283333	      0.85599023	     -0.60584291	     -3.96914559	      1.38687224	      1.02376435	      0.31444782	     25.12083273	     -1.08215461	     -6.74186231	    -61.05083060	      3.55319683	     -7.01559548	     -9.01177217	      4.90694647	      1.21789256	     -8.79468033	    -10.81474316	      0.96089146	     -9.88102994	      1.59330914	    -11.53846596	     -2.54367629	      1.13922334
      1.73700000	      1.04135678	     -0.73694641	     -3.66295563	      1.39183769	      1.02458645	      0.31352986	     25.22000689	     -1.04328586	     -7.12792679	    -59.95234339	      3.90750840	     -6.91109918	     -8.99560156	      4.27072182	      1.18927207	     -8.49669965	    -10.52188272	      1.06103354	     -9.84107717	      1.64452819	    -11.79986218	     -2.28946482	      0.86087165
      1.74116667	      0.98227006	     -0.74853016	     -3.56598197	      1.39681774	      1.02485690	      0.31320336	     25.65282647	     -0.98206917	     -7.24228364	    -58.92502726	      4.29984768	     -6.85209060	     -8.99030448	      3.89712171	      1.22629441	     -8.45340675	    -10.24513596	      1.09464966	     -9.79557531	      1.65615178	    -11.74264932	     -2.22910106	      0.82586908
      1.74533333	      1.09643747	     -0.85766380	     -3.29282195	      1.40176645	      1.02547664	      0.31240131	     25.80241401	     -0.94218391	     -7.57800632	    -57.75797803	      4.63069795	     -6.78801108	     -8.99954331	      3.35563651	      1.19708518	     -8.20609719	     -9.98749813	      1.20680614	     -9.74857672	      1.71315472	    -11.91751684	     -2.00168562	      0.58130956
      1.74950000	      1.04537127	     -0.84666451	     -3.21769306	      1.40668368	      1.02565141	      0.31213457	     26.20452800	     -0.89601564	     -7.65497541	    -56.66518208	      4.98470028	     -6.77590724	     -9.00041207	      2.98500196	      1.25241417	     -8.17881701	     -9.73174510	      1.26222293	     -9.71977988	      1.72720298	    -11.87446514	     -1.97096802	      0.54756476
      1.75366667	      1.10875421	     -0.92124203	     -3.00453672	      1.41158888	      1.02608220	      0.31151930	     26.39787073	     -0.84978416	     -7.89819215	    -55.44123095	      5.26564354	     -6.74660026	     -9.02127152	      2.50393908	      1.23817029	     -7.98695260	     -9.48841935	      1.38688307	     -9.62962769	      1.77385024	    -11.98648028	     -1.80281010	      0.39750556
      1.75783333	      1.14422127	     -0.94961931	     -2.85715308	      1.41651138	      1.02639497	      0.31106370	     26.62550681	     -0.81478727	     -8.06227004	    -54.21031800	      5.56659132	     -6.78865839	     -9.05545565	      2.04507623	      1.26331574	     -7.88114463	     -9.23515423	      1.46474303	     -9.60772081	      1.83072924	    -12.05324083	     -1.70307652	      0.26866291
      1.76200000	      1.12413688	     -0.95373150	     -2.75805326	      1.42141442	      1.02654740	      0.31073073	     26.91378365	     -0.77416069	     -8.15752635	    -52.96148885	      5.82907102	     -6.80804527	     -9.08211525	      1.65724206	      1.30148971	     -7.83287965	     -9.00999717	      1.57570865	     -9.55102844	      1.86869097	    -12.04643638	     -1.63935204	      0.22008965
      1.76616667	      1.04115890	     -0.89633234	     -2.70266845	      1.42629042	      1.02650814	      0.31053737	     27.28321597	     -0.76637416	     -8.18521947	    -51.72653327	      6.14739075	     -6.87439406	     -9.09065623	      1.33367527	      1.39768275	     -7.81071273	     -8.77418149	      1.66831955	     -9.52543206	      1.88018414	    -11.98560492	     -1.66916005	      0.19996678
      1.77033333	      0.96994988	     -0.87982444	     -2.62181897	      1.43118441	      1.02650038	      0.31028918	     27.59281066	     -0.72697415	     -8.23447980	    -50.40634411	      6.40643143	     -6.93776997	     -9.10648359	      1.01000491	      1.44806829	     -7.78384995	     -8.56413734	      1.76390100	     -9.47320257	      1.89551119	    -11.91334145	     -1.63605568	      0.16939861
      1.77450000	      1.01021702	     -0.91519953	     -2.46175771	      1.43603115	      1.02669439	      0.30987054	     27.72724159	     -0.68327752	     -8.38153396	    -48.98428412	      6.55685167	     -7.04543543	     -9.16281998	      0.57977081	      1.44877803	     -7.68074820	     -8.37954217	      1.94576182	     -9.33090403	      1.93992208	    -11.99742051	     -1.52580259	      0.07201130
      1.77866667	      0.92460873	     -0.79591855	     -2.42585129	      1.44086291	      1.02648489	      0.30970016	     28.06280222	     -0.73586868	     -8.35259872	    -47.67007920	      6.82298146	     -7.10744275	     -9.17073769	      0.27529444	      1.61109752	     -7.66100464	     -8.17272067	      2.08031208	     -9.31154747	      1.94747003	    -11.91432853	     -1.62104546	      0.05286074
      1.78283333	      0.90793667	     -0.82194395	     -2.31678325	      1.44576614	      1.02651369	      0.30945216	     28.21975703	     -0.65973873	     -8.41995399	    -46.17522232	      6.97392865	     -7.25181798	     -9.23116398	     -0.09646158	      1.60710168	     -7.63893616	     -7.99142513	      2.22119087	     -9.18507775	      1.98771719	    -11.91979895	     -1.53599079	      0.00907264
      1.78700000	      0.82557377	     -0.73946835	     -2.27099128	      1.45062507	      1.02628746	      0.30929334	     28.48562284	     -0.67453161	     -8.40508228	    -44.74288011	      7.21535537	     -7.32961878	     -9.25729401	     -0.39794945	      1.72323841	     -7.64410287	     -7.80033073	      2.34116145	     -9.16647583	      2.00421201	    -11.84556691	     -1.59026912	     -0.02056176
